<svg xmlns="http://www.w3.org/2000/svg" xmlns:xlink="http://www.w3.org/1999/xlink" viewBox="0,0,256,256" width="100px" height="100px" fill-rule="nonzero"><g fill="#dfdfdf" fill-rule="nonzero" stroke="none" stroke-width="1" stroke-linecap="butt" stroke-linejoin="miter" stroke-miterlimit="10" stroke-dasharray="" stroke-dashoffset="0" font-family="none" font-weight="none" font-size="none" text-anchor="none" style="mix-blend-mode: normal"><g transform="scale(5.12,5.12)"><path d="M25,1c-13.24219,0 -24,10.75781 -24,24c0,13.24219 10.75781,24 24,24c13.24219,0 24,-10.75781 24,-24c0,-13.24219 -10.75781,-24 -24,-24zM25,3c12.16406,0 22,9.83594 22,22c0,12.16016 -9.83594,22 -22,22c-12.16016,0 -22,-9.83984 -22,-22c0,-12.16406 9.83984,-22 22,-22zM23.46875,3.71875l-2.09375,0.25l-0.21875,6.3125l1.625,-0.25l0.15625,-4.21875l1.46875,4.21875h1.1875l1.46875,-4.21875l0.15625,4.21875l1.625,0.25l-0.21875,-6.3125l-2.09375,-0.25l-1.53125,4.4375zM38.78125,8.5625l-3.78125,5l1.15625,1.0625l4.1875,-1.90625l-2.78125,3.65625l0.8125,1.375l5.6875,-2.625l-0.8125,-1.375l-3.28125,1.5l2.34375,-3.0625l-1.03125,-1.28125l-3.5,1.625l2.1875,-2.875zM10.9375,9.3125c-0.14062,0.01172 -0.30078,0.04297 -0.4375,0.09375c-0.25781,0.09766 -0.48437,0.25391 -0.65625,0.46875c-0.09766,0.12109 -0.18359,0.25391 -0.28125,0.375c-0.50781,0.63672 -1.02344,1.26953 -1.53125,1.90625c-0.4375,0.54688 -0.875,1.07813 -1.3125,1.625c-0.02734,0.03516 -0.06641,0.08984 -0.09375,0.125c-0.00391,0.00391 0.05859,0.02734 0.0625,0.03125c0.17188,0.13672 0.36328,0.26953 0.53125,0.40625c0.64063,0.51172 1.26563,1.01953 1.90625,1.53125c0.63281,0.50781 1.26953,1.02344 1.90625,1.53125c0.16016,0.12891 0.33984,0.27734 0.5,0.40625c0.00781,0.00781 0.02344,0.03906 0.03125,0.03125c0.03125,-0.03906 0.0625,-0.08594 0.09375,-0.125c0.43359,-0.54297 0.87891,-1.08203 1.3125,-1.625c0.52344,-0.65234 1.03906,-1.31641 1.5625,-1.96875c0.26953,-0.33594 0.55859,-0.64062 0.6875,-1.0625c0.06641,-0.21875 0.08203,-0.46484 0.0625,-0.6875c-0.08594,-0.59766 -0.44531,-1.08984 -1,-1.34375c-0.55469,-0.25391 -1.19922,-0.16016 -1.6875,0.1875c-0.03906,0.02734 -0.08594,0.0625 -0.125,0.09375c0.08203,-0.27734 0.13281,-0.55859 0.0625,-0.84375c-0.06641,-0.27734 -0.23437,-0.51953 -0.4375,-0.71875c-0.3125,-0.30469 -0.73047,-0.46875 -1.15625,-0.4375zM10.8125,10.90625c0.21484,-0.01562 0.44531,0.05469 0.59375,0.21875c0.16016,0.17578 0.20703,0.42578 0.15625,0.65625c-0.05859,0.20313 -0.21484,0.33984 -0.34375,0.5c-0.25781,0.32422 -0.52344,0.64453 -0.78125,0.96875c-0.26172,0.32422 -0.52344,0.64453 -0.78125,0.96875c-0.26562,-0.21094 -0.51562,-0.41406 -0.78125,-0.625c-0.10156,-0.08203 -0.21094,-0.16797 -0.3125,-0.25c-0.00391,-0.00391 0.11719,-0.11719 0.125,-0.125c0.49219,-0.61328 0.97656,-1.23047 1.46875,-1.84375c0.12891,-0.16016 0.23828,-0.35547 0.4375,-0.4375c0.06641,-0.02734 0.14844,-0.02734 0.21875,-0.03125zM25,11c-7.71875,0 -14,6.28125 -14,14c0,7.71875 6.28125,14 14,14c7.71875,0 14,-6.28125 14,-14c0,-7.71875 -6.28125,-14 -14,-14zM13,12.3125c0.28906,-0.00781 0.53516,0.14844 0.65625,0.40625c0.10547,0.25 0.07422,0.53906 -0.09375,0.75c-0.16797,0.21094 -0.33594,0.41797 -0.5,0.625c-0.45703,0.57422 -0.91797,1.14453 -1.375,1.71875c-0.02344,-0.01953 -0.07031,-0.01172 -0.09375,-0.03125c-0.125,-0.10156 -0.25,-0.21094 -0.375,-0.3125c-0.21484,-0.17187 -0.41016,-0.35937 -0.625,-0.53125c0.41406,-0.51953 0.80469,-1.01172 1.21875,-1.53125c0.20313,-0.25391 0.42188,-0.52734 0.625,-0.78125c0.14453,-0.17969 0.32031,-0.30469 0.5625,-0.3125zM25,13c6.64063,0 12,5.35938 12,12h-12v12c-6.64062,0 -12,-5.35937 -12,-12h12z"></path></g></g></svg>