<svg xmlns="http://www.w3.org/2000/svg" xmlns:xlink="http://www.w3.org/1999/xlink" viewBox="0,0,256,256" width="100px" height="100px" fill-rule="nonzero"><g fill="#dfdfdf" fill-rule="nonzero" stroke="none" stroke-width="1" stroke-linecap="butt" stroke-linejoin="miter" stroke-miterlimit="10" stroke-dasharray="" stroke-dashoffset="0" font-family="none" font-weight="none" font-size="none" text-anchor="none" style="mix-blend-mode: normal"><g transform="scale(2.56,2.56)"><path d="M50,23.99609c-13.11668,0 -25.00065,2.70379 -33.68945,7.14063c-8.6888,4.43684 -14.31055,10.70278 -14.31055,17.85938c0,7.1566 5.62175,13.42449 14.31055,17.86133c8.6888,4.43684 20.57277,7.13867 33.68945,7.13867c13.11668,0 25.00065,-2.70183 33.68945,-7.13867c8.6888,-4.43684 14.31055,-10.70473 14.31055,-17.86133c0,-7.1566 -5.62175,-13.42254 -14.31055,-17.85937c-8.6888,-4.43684 -20.57277,-7.14062 -33.68945,-7.14062zM50,25.99609c12.84072,0 24.45746,2.67242 32.7793,6.92188c8.32184,4.24945 13.2207,9.97989 13.2207,16.07813c0,6.09824 -4.89886,11.83062 -13.2207,16.08008c-8.32184,4.24945 -19.93858,6.91992 -32.7793,6.91992c-12.84072,0 -24.45746,-2.67047 -32.7793,-6.91992c-8.32184,-4.24945 -13.2207,-9.98184 -13.2207,-16.08008c0,-6.09824 4.89886,-11.82867 13.2207,-16.07812c8.32184,-4.24945 19.93858,-6.92187 32.7793,-6.92187zM50,27.99609c-11.78239,0 -22.47067,2.30591 -30.25586,6.06055c-7.78519,3.75463 -12.74414,9.00439 -12.74414,14.9375c0,5.93314 4.96041,11.18577 12.74609,14.94141c7.78568,3.75564 18.47344,6.06055 30.25586,6.06055c11.78242,0 22.46896,-2.3049 30.25391,-6.06055c7.78494,-3.75565 12.74519,-9.00827 12.74414,-14.94141c0,-3.6484 -1.89774,-7.05752 -5.14648,-9.99219c-3.24875,-2.93467 -7.8587,-5.42279 -13.4082,-7.29297c-0.17135,-0.06516 -0.36463,-0.03134 -0.50366,0.08815c-0.13904,0.11949 -0.20154,0.30547 -0.16289,0.48468c0.03865,0.1792 0.17227,0.32289 0.3482,0.37444c5.4535,1.83782 9.94914,4.28081 13.05664,7.08789c3.1075,2.80708 4.81641,5.9474 4.81641,9.25c0.00095,5.37087 -4.57168,10.37167 -12.17773,14.04102c-7.60606,3.66935 -18.16873,5.96094 -29.82031,5.96094c-11.65158,0 -22.21545,-2.29158 -29.82226,-5.96094c-7.60682,-3.66936 -12.17969,-8.67016 -12.17969,-14.04102c0,-5.37089 4.57338,-10.36874 12.17969,-14.03711c7.60631,-3.66837 18.1687,-5.96094 29.82031,-5.96094c1.35743,0 2.70006,0.03115 4.02539,0.0918c0.18334,0.01666 0.36102,-0.06876 0.46249,-0.22237c0.10148,-0.15361 0.11034,-0.35055 0.02307,-0.51266c-0.08727,-0.1621 -0.25655,-0.26315 -0.44065,-0.26302c-1.34067,-0.06135 -2.69774,-0.09375 -4.07031,-0.09375zM56.93945,28.28125c-0.27126,0.01192 -0.48349,0.23806 -0.47819,0.50953c0.0053,0.27147 0.2262,0.48915 0.49772,0.49047c0.66787,0.05466 1.33157,0.11696 1.98828,0.1875c0.18033,0.02417 0.35955,-0.0515 0.46798,-0.1976c0.10843,-0.1461 0.12896,-0.33956 0.05359,-0.50515c-0.07536,-0.1656 -0.23472,-0.27719 -0.41611,-0.29139c-0.66529,-0.07146 -1.33559,-0.13607 -2.01172,-0.19141c-0.01688,-0.00151 -0.03383,-0.00216 -0.05078,-0.00195c-0.01692,-0.00086 -0.03386,-0.00086 -0.05078,0zM61.97266,28.84961c-0.26104,0.00844 -0.47161,0.21635 -0.48338,0.47726c-0.01177,0.26091 0.17924,0.48693 0.43846,0.51883c3.15245,0.45901 6.14705,1.09514 8.93555,1.88477c0.2659,0.07551 0.54266,-0.07883 0.61816,-0.34473c0.07551,-0.2659 -0.07883,-0.54266 -0.34473,-0.61816c-2.8335,-0.80237 -5.8709,-1.44712 -9.06445,-1.91211c-0.03292,-0.00527 -0.06629,-0.00723 -0.09961,-0.00586zM20.13086,36.99023c-0.36551,0 -0.62891,0.23808 -0.62891,0.625v1.19922c0,0.38171 0.26679,0.625 0.62891,0.625h0.60156v21.54297c0,0.54726 0.47092,1.00781 1.01367,1.00781h5.67578c0.5492,0 0.99609,-0.47348 0.99609,-1.00586v-8.48437l6.41211,8.71484h0.00195c0.30403,0.45527 0.74907,0.77539 1.31055,0.77539h6.65039c0.39104,0 0.67869,-0.20098 0.85156,-0.52539c0,-0.00065 0,-0.0013 0,-0.00195c0.1767,-0.33308 0.11132,-0.7616 -0.0957,-1.05078c-0.03931,-0.05677 -8.3443,-11.57396 -8.42187,-11.68164c0.0026,0.003 -0.0015,0.01806 0.03516,-0.05664l-0.00195,0.00781l6.95508,-10.17969c0.00403,-0.00578 0.00794,-0.01164 0.01172,-0.01758c0.19446,-0.31027 0.18441,-0.69382 0.00977,-1c-0.16819,-0.29481 -0.48822,-0.49414 -0.83789,-0.49414h-6.31445c-0.56148,0 -1.00623,0.31816 -1.31445,0.76758h-0.00195l-5.25,7.24609v-7.00781c0,-0.55378 -0.46212,-1.00586 -1.01367,-1.00586zM62.32031,36.99023c-0.37269,0 -0.62891,0.22767 -0.62891,0.625v1.19922c0,0.20036 0.0864,0.34358 0.19141,0.44531c0.10501,0.10173 0.24793,0.17969 0.4375,0.17969h0.73438c-0.0027,0.008 -0.00032,0.0039 -0.00391,0.01367c-0.00134,0.00324 -0.00264,0.0065 -0.00391,0.00977l-7.24805,21.25c-0.00286,0.00904 -0.00547,0.01816 -0.00781,0.02734c-0.08529,0.30462 -0.02063,0.62885 0.17188,0.87891c0.00065,0.0013 0.0013,0.00261 0.00195,0.00391c0.18246,0.23371 0.47597,0.36719 0.76367,0.36719h5.64844c0.53429,0 0.95051,-0.33469 1.14063,-0.8125c0.00425,-0.01028 0.00816,-0.02071 0.01172,-0.03125l4.57617,-14.15234l4.62695,14.1543c0.00295,0.00986 0.00621,0.01963 0.00977,0.0293c0.18915,0.47698 0.61702,0.8125 1.14453,0.8125h5.64453c0.35962,0 0.64495,-0.20771 0.76953,-0.37109c0.00066,-0.00195 0.00131,-0.0039 0.00195,-0.00586c0.21895,-0.29328 0.25683,-0.59788 0.16211,-0.89258c-0.00127,-0.00327 -0.00257,-0.00652 -0.00391,-0.00977l-7.85742,-23.04492c-0.00295,-0.00986 -0.00621,-0.01963 -0.00977,-0.0293c-0.11443,-0.27724 -0.35864,-0.47364 -0.57812,-0.55664c-0.21948,-0.083 -0.41643,-0.08984 -0.56836,-0.08984zM52.73047,36.99219l-7.68164,0.00586c-0.19306,0 -0.4702,0.20536 -0.53125,0.36328c-0.06105,0.15792 -0.04297,0.23472 -0.04297,0.26172v1.18945c-0.00058,0.03031 -0.01974,0.1129 0.04297,0.27344c0.06271,0.16053 0.33974,0.35937 0.53125,0.35937h0.70703v21.54492c0,0.55407 0.47834,1.00586 1.02148,1.00586l5.95313,-0.00586c0.54359,0 1.02344,-0.45296 1.02344,-1.00586v-22.98242c0,-0.56097 -0.46923,-1.00977 -1.02344,-1.00977zM20.50195,37.99023h6.90234c0.01445,0 0.01367,0.00356 0.01367,0.00586v7.66211c0,0.41158 0.40299,0.75391 0.77344,0.75391h0.00586c0.157,0 0.53126,-0.10996 0.7832,-0.48047l-0.00781,0.01367l5.51367,-7.61133c0.00264,-0.00322 0.00525,-0.00648 0.00781,-0.00977c0.12174,-0.17779 0.45433,-0.33398 0.49023,-0.33398h6.27148l-6.94922,10.16602c-0.01652,0.02409 -0.0309,0.04958 -0.04297,0.07617c-0.00035,0.00071 0.00035,0.00321 0,0.00391c-0.00132,0.00194 -0.00262,0.0039 -0.00391,0.00586c-0.05183,0.1038 -0.14844,0.25409 -0.14844,0.51367c0,0.10173 0.02105,0.16283 0.02539,0.17578c0.02505,0.12759 0.06598,0.19716 0.0957,0.25c0.00064,0.00196 0.00129,0.00391 0.00195,0.00586c0.0021,0.0036 0.0331,0.0619 0.08008,0.12695c0.09854,0.13679 8.39211,11.63602 8.41211,11.66602c0.00256,0.00329 0.00517,0.00654 0.00781,0.00977h-6.5918c-0.0359,0 -0.36052,-0.15015 -0.48047,-0.33008c-0.0044,-0.00662 -0.00896,-0.01313 -0.01367,-0.01953l-6.67773,-9.07617c-0.00318,-0.00461 -0.00643,-0.00917 -0.00977,-0.01367c0.0025,0.0038 -0.00666,-0.00891 -0.00586,-0.00781c-0.00059,-0.00085 -0.00331,-0.00301 -0.00391,-0.00391c-0.00022,-0.00054 -0.0063,-0.0067 -0.01172,-0.01367c-0.00571,-0.006 -0.01157,-0.01187 -0.01758,-0.01758c-0.03907,-0.05656 -0.08685,-0.13344 -0.19531,-0.2207c-0.12626,-0.10157 -0.33,-0.1875 -0.53711,-0.1875c-0.19785,0 -0.42366,0.08451 -0.57031,0.24805c-0.14665,0.16354 -0.20117,0.37175 -0.20117,0.5625v9.07422c0,0.02762 0.02072,0.00586 0.00391,0.00586h-5.67578c-0.03525,0 -0.01367,0.02092 -0.01367,-0.00781v-21.57422c0,-0.39656 -0.28327,-0.67357 -0.62891,-0.82422c-0.09423,-0.09425 -0.22219,-0.14698 -0.35547,-0.14648c-0.01695,-0.00021 -0.0339,0.00044 -0.05078,0.00195h-0.19531zM62.69141,37.99023h8.75586c0.10206,0 0.18707,0.01489 0.21484,0.02539c0.02777,0.0105 -0.00274,-0.01886 0.00586,0.00195l7.83203,22.97266h-5.61328c-0.03049,0 -0.17399,-0.07862 -0.21484,-0.18164l-4.85937,-14.86523c-0.00241,-0.00788 -0.00502,-0.01569 -0.00781,-0.02344c-0.00125,-0.00392 -0.00256,-0.00783 -0.00391,-0.01172c-0.0021,-0.0048 -0.00456,-0.00677 -0.00586,-0.00977v-0.00195c-0.00065,-0.0013 -0.0013,-0.00261 -0.00195,-0.00391c-0.0031,-0.0079 -0.00371,-0.01395 -0.00781,-0.02344c-0.01795,-0.04184 -0.04516,-0.09832 -0.08984,-0.16211c-0.08936,-0.12758 -0.30423,-0.31641 -0.58984,-0.31641c-0.27835,0 -0.50013,0.18191 -0.59375,0.31445c-0.04681,0.06627 -0.07463,0.12474 -0.09375,0.17188c-0.0096,0.02357 -0.01748,0.04339 -0.02344,0.0625c-0.0024,0.0077 -0.00356,0.01694 -0.00586,0.02539c-0.00054,0.002 -0.00135,0.00366 -0.00195,0.00586l-4.79883,14.83789c-0.03589,0.09019 -0.19923,0.18164 -0.21094,0.18164h-5.61523l7.23242,-21.20312l-0.00586,0.00977c0.05205,-0.14146 0.08789,-0.28836 0.08789,-0.44336c0,-0.25438 -0.1157,-0.51562 -0.30664,-0.67969c-0.19095,-0.16407 -0.43393,-0.23437 -0.67383,-0.23437h-0.4043zM52.73047,37.99219c0.0218,0 0.02344,0.0147 0.02344,0.00977v22.98242c0,0.0191 0.02298,0.00586 -0.02344,0.00586l-5.95312,0.00586c-0.04086,0 -0.02148,0.01212 -0.02148,-0.00586v-21.57226c0,-0.22607 -0.06373,-0.46429 -0.22656,-0.6582c-0.16283,-0.19391 -0.43378,-0.31445 -0.69727,-0.31445h-0.35742v-0.44727zM20.25586,38.93164c-0.00006,0.00456 -0.00006,0.00911 0,0.01367l-0.00781,-0.00586l0.00195,-0.00195zM68.33789,46.09961c0,0 -0.19839,0.17313 -0.29687,0.25977c-0.04106,-0.01507 -0.0687,-0.0252 -0.09375,-0.04492c0.07532,-0.04198 0.39063,-0.21484 0.39063,-0.21484zM79.50781,61.00977l0.00391,0.01563c-0.00496,-0.01541 -0.00373,-0.00886 -0.00586,-0.01367z"></path></g></g></svg>