<svg xmlns="http://www.w3.org/2000/svg" xmlns:xlink="http://www.w3.org/1999/xlink" viewBox="0,0,256,256" width="100px" height="100px" fill-rule="nonzero"><g fill="#dfdfdf" fill-rule="nonzero" stroke="none" stroke-width="1" stroke-linecap="butt" stroke-linejoin="miter" stroke-miterlimit="10" stroke-dasharray="" stroke-dashoffset="0" font-family="none" font-weight="none" font-size="none" text-anchor="none" style="mix-blend-mode: normal"><g transform="scale(5.12,5.12)"><path d="M25,2c-12.683,0 -23,10.318 -23,23c0,12.682 10.317,23 23,23c12.683,0 23,-10.318 23,-23c0,-12.682 -10.317,-23 -23,-23zM30.873,6.94v0l-5.873,13.06l-5.873,-13.06v0c1.851,-0.604 3.823,-0.94 5.873,-0.94c2.05,0 4.022,0.336 5.873,0.94zM15.241,8.728v0l7.157,15.272h5.203l7.157,-15.272v0c2.13,1.283 3.985,2.966 5.466,4.953v0l-8.871,19.319l-3.693,-7h-5.32l-3.693,7l-8.872,-19.319v0c1.481,-1.986 3.336,-3.67 5.466,-4.953zM6,25c0,-2.348 0.448,-4.587 1.23,-6.665v0l10.914,24.365c0.007,0.003 0.014,0.005 0.021,0.008c-7.105,-2.753 -12.165,-9.643 -12.165,-17.708zM18.185,42.715l6.815,-12.715l6.815,12.715c-2.119,0.818 -4.411,1.285 -6.815,1.285c-2.404,0 -4.696,-0.467 -6.815,-1.285zM31.834,42.708c0.007,-0.003 0.014,-0.005 0.021,-0.008l10.915,-24.365v0c0.782,2.078 1.23,4.317 1.23,6.665c0,8.065 -5.06,14.955 -12.166,17.708z"></path></g></g></svg>