<svg xmlns="http://www.w3.org/2000/svg" xmlns:xlink="http://www.w3.org/1999/xlink" viewBox="0,0,256,256" width="100px" height="100px" fill-rule="nonzero"><g fill="#dfdfdf" fill-rule="nonzero" stroke="none" stroke-width="1" stroke-linecap="butt" stroke-linejoin="miter" stroke-miterlimit="10" stroke-dasharray="" stroke-dashoffset="0" font-family="none" font-weight="none" font-size="none" text-anchor="none" style="mix-blend-mode: normal"><g transform="scale(5.12,5.12)"><path d="M10,15v1v10.76172c0,0.47028 -0.12743,0.70693 -0.33984,0.89453c-0.21242,0.18761 -0.58035,0.3418 -1.16016,0.3418c-1.05769,0 -1.46484,-0.62138 -1.46484,-1.27539v-0.01172l-0.05469,-2.71094h-5.98047v2.76172c0,1.12804 0.17959,2.881 1.25781,4.44336c1.07822,1.56236 3.1079,2.79492 6.24219,2.79492c3.14984,0 5.18169,-1.31687 6.25,-2.91602c0.02886,-0.04321 0.05054,-0.08744 0.07813,-0.13086c0.21964,0.43588 0.48127,0.83715 0.79883,1.19141c1.14097,1.27281 2.85896,1.85428 4.88867,1.85547c1.8722,0.01857 3.46979,-0.66761 4.60352,-1.61133c0.36759,-0.30598 0.68899,-0.63843 0.96289,-0.98828c0.16351,0.26278 0.34015,0.5157 0.54492,0.74414c1.14097,1.27281 2.85896,1.85428 4.88867,1.85547c1.8123,0.01798 3.35838,-0.63022 4.48438,-1.52734v4.52734h6v-3.16016c0.49,0.11 1.02938,0.16016 1.60938,0.16016c1.26,0 5.39063,-0.5 5.39063,-7c0,-6.5 -4.13063,-7 -5.39062,-7h-1.60937h-6v1.63672c-1.14146,-1.13153 -2.73415,-1.63672 -4.5,-1.63672c-1.94048,0 -3.62551,0.57719 -4.7832,1.7832c-0.30928,0.32219 -0.57228,0.68513 -0.79687,1.08008c-0.17625,-0.31378 -0.36697,-0.61145 -0.58984,-0.87891c-1.15206,-1.38247 -2.8896,-1.98437 -4.83008,-1.98437c-1.79076,0 -3.35803,0.49779 -4.5,1.52148v-6.52148zM12,17h2v9.67969c0,0.78954 -0.17617,2.19136 -0.91211,3.29297c-0.73594,1.10161 -1.95473,2.02734 -4.58789,2.02734c-2.64772,0 -3.86942,-0.8773 -4.5957,-1.92969c-0.72628,-1.05239 -0.9043,-2.41763 -0.9043,-3.30859v-0.76172h2.01953l0.01563,0.72266c0,1.70599 1.45453,3.27539 3.46484,3.27539c0.9442,0 1.82779,-0.2619 2.48438,-0.8418c0.65658,-0.57989 1.01563,-1.46081 1.01563,-2.39453zM20.5,22c1.55952,0 2.57198,0.3981 3.29492,1.26563c0.72294,0.86753 1.20508,2.36771 1.20508,4.73438h-6c0,1 0.237,2 1.5,2c1.258,0 1.5,-1 1.5,-1h3c0,0.34859 -0.36942,1.18977 -1.16211,1.84961c-0.79269,0.65984 -1.93167,1.16477 -3.30469,1.15039h-0.00586h-0.00586c-1.67248,0 -2.71169,-0.41877 -3.4043,-1.19141c-0.69261,-0.77264 -1.11719,-2.04725 -1.11719,-3.99609c0,-1.73166 0.4409,-2.89534 1.1582,-3.64258c0.7173,-0.74724 1.78227,-1.16992 3.3418,-1.16992zM31.5,22c1.55952,0 2.57198,0.3981 3.29492,1.26563c0.72294,0.86753 1.20508,2.36771 1.20508,4.73438h-6c0,1 0.237,2 1.5,2c1.258,0 1.5,-1 1.5,-1h3c0,0.34859 -0.36942,1.18977 -1.16211,1.84961c-0.79269,0.65984 -1.93167,1.16477 -3.30469,1.15039h-0.00586h-0.00586c-1.67248,0 -2.71169,-0.41877 -3.4043,-1.19141c-0.69261,-0.77264 -1.11719,-2.04725 -1.11719,-3.99609c0,-1.73166 0.4409,-2.89534 1.1582,-3.64258c0.7173,-0.74724 1.78227,-1.16992 3.3418,-1.16992zM38,22h2v1.19922c0.73,-0.91 1.8,-1.19922 3,-1.19922h0.60938c1.86,0 3.00078,1.28063 3.30078,3.64063c0.03,0.17 0.05055,0.34906 0.06055,0.53906c0,0.04 0.00977,0.09086 0.00977,0.13086c0.01,0.22 0.01953,0.44945 0.01953,0.68945c0,0.24 -0.00953,0.46945 -0.01953,0.68945c-0.01,0.27 -0.04008,0.53149 -0.08008,0.77148c-0.02,0.17 -0.05008,0.32852 -0.08008,0.47852v0.02148c-0.41,1.98 -1.52094,3.03906 -3.21094,3.03906h-0.60937c-1.2,0 -2.27,-0.28922 -3,-1.19922v4.19922h-2zM20.5,24c-1.018,0 -1.5,1 -1.5,2h3c0,-1 -0.471,-2 -1.5,-2zM31.5,24c-1.018,0 -1.5,1 -1.5,2h3c0,-1 -0.471,-2 -1.5,-2zM42,24c-1.10457,0 -2,1.34315 -2,3c0,1.65685 0.89543,3 2,3c1.10457,0 2,-1.34315 2,-3c0,-1.65685 -0.89543,-3 -2,-3z"></path></g></g></svg>