<svg xmlns="http://www.w3.org/2000/svg" xmlns:xlink="http://www.w3.org/1999/xlink" viewBox="0,0,256,256" width="100px" height="100px" fill-rule="nonzero"><g fill="#dfdfdf" fill-rule="nonzero" stroke="none" stroke-width="1" stroke-linecap="butt" stroke-linejoin="miter" stroke-miterlimit="10" stroke-dasharray="" stroke-dashoffset="0" font-family="none" font-weight="none" font-size="none" text-anchor="none" style="mix-blend-mode: normal"><g transform="scale(5.12,5.12)"><path d="M25,5c-1.49977,0 -3.11587,0.70545 -4.92773,1.75391c-1.81186,1.04846 -3.78745,2.48048 -5.76172,4.08984c-3.94854,3.21872 -7.87436,7.13537 -10.27148,10.12109c-0.64722,0.80492 -1.03906,1.80778 -1.03906,2.87109v2.98437c0,0.6796 0.04973,1.41245 0.78516,1.91992c0.36772,0.25374 0.88039,0.3054 1.26953,0.20313c0.38915,-0.10228 0.70188,-0.30336 1.01563,-0.5625c3.81844,-3.14924 7.69582,-6.28837 11.08008,-8.61719c3.38426,-2.32882 6.37494,-3.76367 7.84961,-3.76367c1.47467,0 4.46535,1.43485 7.84961,3.76367c3.38426,2.32882 7.26164,5.46795 11.08008,8.61719c0.31374,0.25914 0.62648,0.46022 1.01562,0.5625c0.38915,0.10228 0.90182,0.05061 1.26953,-0.20312c0.73543,-0.50747 0.78516,-1.24032 0.78516,-1.91992v-2.98437c0,-1.06332 -0.39184,-2.06618 -1.03906,-2.87109c-2.39712,-2.98572 -6.32295,-6.90237 -10.27148,-10.12109c-1.97427,-1.60936 -3.94985,-3.04138 -5.76172,-4.08984c-1.81186,-1.04846 -3.42796,-1.75391 -4.92773,-1.75391zM25,7c0.78623,0 2.25305,0.51838 3.92578,1.48633c1.67273,0.96795 3.58289,2.34544 5.5,3.9082c3.83421,3.12553 7.71273,7.00499 9.97461,9.82227c0.00065,0 0.0013,0 0.00195,0c0.39009,0.48486 0.59766,1.04304 0.59766,1.61914v2.84375c-3.76081,-3.09964 -7.59352,-6.20629 -11.01758,-8.5625c-3.48724,-2.39968 -6.45709,-4.11719 -8.98242,-4.11719c-2.52533,0 -5.49518,1.71751 -8.98242,4.11719c-3.42406,2.35621 -7.25677,5.46286 -11.01758,8.5625v-2.84375c0,-0.5761 0.20751,-1.13428 0.59766,-1.61914c0.00065,0 0.0013,0 0.00195,0c2.26188,-2.81728 6.1404,-6.69674 9.97461,-9.82227c1.91711,-1.56276 3.82727,-2.94026 5.5,-3.9082c1.67273,-0.96795 3.13955,-1.48633 3.92578,-1.48633zM25,21c-1.49977,0 -3.11587,0.70545 -4.92773,1.75391c-1.81186,1.04846 -3.78745,2.48048 -5.76172,4.08984c-3.94854,3.21872 -7.87436,7.13537 -10.27148,10.12109c-0.64722,0.80492 -1.03906,1.80778 -1.03906,2.87109v2.98437c0,0.6796 0.04973,1.41245 0.78516,1.91992c0.36772,0.25374 0.88039,0.3054 1.26953,0.20313c0.38915,-0.10228 0.70188,-0.30336 1.01563,-0.5625c3.81844,-3.14924 7.69582,-6.28837 11.08008,-8.61719c3.38426,-2.32882 6.37494,-3.76367 7.84961,-3.76367c1.47467,0 4.46535,1.43485 7.84961,3.76367c3.38426,2.32882 7.26164,5.46795 11.08008,8.61719c0.31374,0.25914 0.62648,0.46022 1.01562,0.5625c0.38915,0.10228 0.90182,0.05061 1.26953,-0.20312c0.73543,-0.50747 0.78516,-1.24032 0.78516,-1.91992v-2.98437c0,-1.06332 -0.39184,-2.06618 -1.03906,-2.87109c-2.39712,-2.98573 -6.32295,-6.90237 -10.27148,-10.12109c-1.97427,-1.60936 -3.94985,-3.04138 -5.76172,-4.08984c-1.81186,-1.04846 -3.42796,-1.75391 -4.92773,-1.75391zM25,23c0.78623,0 2.25305,0.51838 3.92578,1.48633c1.67273,0.96795 3.58289,2.34544 5.5,3.9082c3.83421,3.12553 7.71273,7.00499 9.97461,9.82227c0.00065,0 0.0013,0 0.00195,0c0.39009,0.48486 0.59766,1.04304 0.59766,1.61914v2.84375c-3.76081,-3.09964 -7.59352,-6.2063 -11.01758,-8.5625c-3.48724,-2.39968 -6.45709,-4.11719 -8.98242,-4.11719c-2.52533,0 -5.49518,1.71751 -8.98242,4.11719c-3.42406,2.35621 -7.25677,5.46286 -11.01758,8.5625v-2.84375c0,-0.5761 0.20751,-1.13428 0.59766,-1.61914c0.00065,0 0.0013,0 0.00195,0c2.26188,-2.81728 6.1404,-6.69674 9.97461,-9.82227c1.91711,-1.56276 3.82727,-2.94026 5.5,-3.9082c1.67273,-0.96795 3.13955,-1.48633 3.92578,-1.48633z"></path></g></g></svg>